<svg width="313" height="335" viewBox="0 0 313 335" fill="none" xmlns="http://www.w3.org/2000/svg">
<g filter="url(#filter0_d_0_1)">
<path d="M161.533 6.68068e-06L161.797 311.212L115.075 322.882L8.53298 168.086L95.7348 148.681L57.5937 169.826L125.062 273.785L128.402 272.902L128.66 73.1462L161.533 6.68068e-06Z" fill="white"/>
</g>
<path d="M231.708 238.715C216.303 238.715 212.417 240.462 199.213 235.985C198.078 235.985 191.27 251.598 190.135 254C190.135 245.965 190.135 221.574 190.135 208.363V192.75C198.078 195.152 196.943 195.152 201.482 196.353C208.291 197.554 208.164 198.388 212.83 198.755C225.313 199.738 225.278 199.738 231.812 199.738C238.62 199.738 244.638 198.464 249.865 195.916C255.092 193.369 259.184 189.839 262.141 185.326C265.098 180.813 266.577 175.609 266.577 169.713C266.577 163.745 264.995 158.467 261.831 153.882C258.737 149.224 251.481 142.831 245.635 140.211C238.712 137.108 238.712 136.4 228.717 133.133L210.225 127.689L192.351 120.067L210.225 112.989L228.717 106.456C240.946 102.1 240.946 102.1 245.635 100.602C250.862 98.1273 254.92 94.7063 257.808 90.3391C260.697 85.8991 262.141 80.7313 262.141 74.8356C262.141 69.231 260.869 64.3179 258.324 60.0963C255.848 55.8018 252.341 52.4537 247.802 50.0517C243.331 47.6497 238.104 46.4488 232.121 46.4488C226.069 46.4488 220.533 47.6133 215.512 49.9425C209.426 52.2353 209.299 52.2577 202.617 53.4363C195.935 54.6149 195.809 54.6373 189 55.8382L189 29.4167C189 19.8088 189 21.0098 189 19.8088C191.27 18.6078 191.744 18.272 193.849 17.4069C206.331 12.2754 217.885 9 232.327 9C246.907 9 259.665 11.8023 270.6 17.4069C281.535 23.0114 290.029 30.5813 296.081 40.1163C302.202 49.5786 305.228 60.2054 305.159 71.9969C305.228 84.5162 301.548 94.9611 294.121 103.332C286.762 111.702 282.532 112.43 270.703 114.686L192.351 120.067L270.703 123.093C286.246 125.204 292.711 128.843 300.826 138.16C309.01 147.404 313.068 158.977 312.999 172.879C313.068 185.617 309.595 196.935 302.58 206.834C295.634 216.733 286.04 224.521 273.798 230.199C261.556 235.876 247.526 238.715 231.708 238.715Z" fill="#9459CA"/>
<defs>
<filter id="filter0_d_0_1" x="0.53299" y="0" width="161.264" height="334.882" filterUnits="userSpaceOnUse" color-interpolation-filters="sRGB">
<feFlood flood-opacity="0" result="BackgroundImageFix"/>
<feColorMatrix in="SourceAlpha" type="matrix" values="0 0 0 0 0 0 0 0 0 0 0 0 0 0 0 0 0 0 127 0" result="hardAlpha"/>
<feOffset dx="-4" dy="8"/>
<feGaussianBlur stdDeviation="2"/>
<feComposite in2="hardAlpha" operator="out"/>
<feColorMatrix type="matrix" values="0 0 0 0 0 0 0 0 0 0 0 0 0 0 0 0 0 0 0.25 0"/>
<feBlend mode="normal" in2="BackgroundImageFix" result="effect1_dropShadow_0_1"/>
<feBlend mode="normal" in="SourceGraphic" in2="effect1_dropShadow_0_1" result="shape"/>
</filter>
</defs>
</svg>
